<?xml version="1.0" encoding="utf-8"?>
<!-- Generated by IcoMoon.io -->
<!DOCTYPE svg PUBLIC "-//W3C//DTD SVG 1.1//EN" "http://www.w3.org/Graphics/SVG/1.1/DTD/svg11.dtd">
<svg version="1.1" xmlns="http://www.w3.org/2000/svg" xmlns:xlink="http://www.w3.org/1999/xlink" width="176" height="16" viewBox="0 0 176 16">
<g transform="translate(0 0)">
	<path d="M8.735 1c0 0-3.14 0-4.187 0-1.877 0-3.643 1.422-3.643 3.069 0 1.683 1.279 3.042 3.189 3.042 0.133 0 0.262-0.003 0.388-0.012-0.124 0.237-0.213 0.505-0.213 0.782 0 0.468 0.252 0.847 0.57 1.157-0.24 0-0.473 0.007-0.726 0.007-2.325-0-4.114 1.481-4.114 3.016 0 1.512 1.962 2.458 4.286 2.458 2.65 0 4.114-1.504 4.114-3.016 0-1.213-0.358-1.939-1.464-2.721-0.378-0.268-1.102-0.919-1.102-1.302 0-0.449 0.128-0.67 0.804-1.198 0.692-0.541 1.182-1.302 1.182-2.186 0-1.053-0.469-2.080-1.35-2.418h1.327l0.937-0.677zM7.273 11.242c0.033 0.14 0.051 0.284 0.051 0.432 0 1.222-0.787 2.177-3.046 2.177-1.607 0-2.767-1.017-2.767-2.239 0-1.198 1.439-2.194 3.046-2.177 0.375 0.004 0.724 0.064 1.042 0.167 0.872 0.607 1.498 0.949 1.675 1.641zM4.7 6.684c-1.079-0.032-2.104-1.207-2.29-2.623-0.186-1.417 0.537-2.501 1.615-2.469 1.078 0.032 2.104 1.169 2.29 2.585 0.186 1.417-0.537 2.538-1.616 2.506zM13 4v-3h-1v3h-3v1h3v3h1v-3h3v-1z" fill="#282828" />
</g>
<g transform="translate(32 0)">
	<path d="M16 3.038c-0.589 0.261-1.221 0.438-1.885 0.517 0.678-0.406 1.198-1.050 1.443-1.816-0.634 0.376-1.337 0.649-2.085 0.797-0.599-0.638-1.452-1.037-2.396-1.037-1.813 0-3.283 1.47-3.283 3.282 0 0.257 0.029 0.508 0.085 0.748-2.728-0.137-5.147-1.444-6.766-3.43-0.283 0.485-0.444 1.049-0.444 1.65 0 1.139 0.579 2.144 1.46 2.732-0.538-0.017-1.044-0.165-1.487-0.411-0 0.014-0 0.027-0 0.041 0 1.59 1.132 2.917 2.633 3.219-0.275 0.075-0.565 0.115-0.865 0.115-0.212 0-0.417-0.021-0.618-0.059 0.418 1.304 1.63 2.253 3.066 2.28-1.123 0.88-2.539 1.405-4.077 1.405-0.265 0-0.526-0.016-0.783-0.046 1.453 0.931 3.178 1.475 5.032 1.475 6.038 0 9.34-5.002 9.34-9.34 0-0.142-0.003-0.284-0.010-0.425 0.642-0.463 1.198-1.041 1.638-1.699z" fill="#282828" />
</g>
<g transform="translate(64 0)">
	<path d="M8.998 16h-2.998v-8h-2v-2.757l2-0.001-0.003-1.624c0-2.249 0.61-3.618 3.259-3.618h2.206v2.758h-1.379c-1.032 0-1.081 0.385-1.081 1.104l-0.004 1.38h2.48l-0.292 2.757-2.185 0.001-0.002 8z" fill="#282828" />
</g>
<g transform="translate(96 0)">
	<path d="M13 2h-10c-1.65 0-3 1.35-3 3v6c0 1.65 1.35 3 3 3h10c1.65 0 3-1.35 3-3v-6c0-1.65-1.35-3-3-3zM6 12v-8l5 4-5 4z" fill="#282828" />
</g>
<g transform="translate(128 0)">
	<path d="M2.13 11.733c-1.175 0-2.13 0.958-2.13 2.126 0 1.174 0.955 2.122 2.13 2.122 1.179 0 2.133-0.948 2.133-2.122-0-1.168-0.954-2.126-2.133-2.126zM0.002 5.436v3.067c1.997 0 3.874 0.781 5.288 2.196 1.412 1.411 2.192 3.297 2.192 5.302h3.080c-0-5.825-4.739-10.564-10.56-10.564zM0.006 0v3.068c7.122 0 12.918 5.802 12.918 12.932h3.076c0-8.82-7.176-16-15.994-16z" fill="#282828" />
</g>
<g transform="translate(160 0)">
	<path d="M0 4.818l0.65 0.852c0 0 1.34-1.056 1.787-0.528 0.447 0.528 2.152 6.906 2.721 8.082 0.497 1.032 1.867 2.396 3.371 1.422 1.502-0.974 6.497-5.239 7.392-10.275 0.893-5.035-6.011-3.98-6.743 0.406 1.828-1.097 2.804 0.446 1.868 2.193-0.934 1.746-1.787 2.884-2.234 2.884-0.446 0-0.789-1.168-1.3-3.21-0.528-2.111-0.525-5.913-2.721-5.482-2.071 0.406-4.792 3.656-4.792 3.656z" fill="#282828" />
</g>
</svg>
